<svg width="205" height="235" viewBox="0 0 205 235" fill="none" xmlns="http://www.w3.org/2000/svg">
<path d="M81.2971 104.283C74.62 104.283 69.3486 110.14 69.3486 117.286C69.3486 124.431 74.7371 130.289 81.2971 130.289C87.9743 130.289 93.2457 124.431 93.2457 117.286C93.3629 110.14 87.9743 104.283 81.2971 104.283ZM124.054 104.283C117.377 104.283 112.106 110.14 112.106 117.286C112.106 124.431 117.494 130.289 124.054 130.289C130.731 130.289 136.003 124.431 136.003 117.286C136.003 110.14 130.731 104.283 124.054 104.283Z" fill="white"/>
<path d="M180.986 0H24.0143C10.7771 0 0 10.7771 0 24.1314V182.509C0 195.863 10.7771 206.64 24.0143 206.64H156.854L150.646 184.969L165.64 198.909L179.814 212.029L205 234.286V24.1314C205 10.7771 194.223 0 180.986 0ZM135.769 152.989C135.769 152.989 131.551 147.951 128.037 143.5C143.383 139.166 149.24 129.56 149.24 129.56C144.437 132.723 139.869 134.949 135.769 136.471C129.911 138.931 124.289 140.571 118.783 141.509C107.537 143.617 97.2286 143.031 88.4429 141.391C81.7657 140.103 76.0257 138.229 71.2229 136.354C68.5286 135.3 65.6 134.011 62.6714 132.371C62.32 132.137 61.9686 132.02 61.6171 131.786C61.3829 131.669 61.2657 131.551 61.1486 131.434C59.04 130.263 57.8686 129.443 57.8686 129.443C57.8686 129.443 63.4914 138.814 78.3686 143.266C74.8543 147.717 70.52 152.989 70.52 152.989C44.6314 152.169 34.7914 135.183 34.7914 135.183C34.7914 97.4629 51.66 66.8886 51.66 66.8886C68.5286 54.2371 84.5771 54.5886 84.5771 54.5886L85.7486 55.9943C64.6629 62.0857 54.94 71.34 54.94 71.34C54.94 71.34 57.5171 69.9343 61.8514 67.9429C74.3857 62.4371 84.3429 60.9143 88.4429 60.5629C89.1457 60.4457 89.7314 60.3286 90.4343 60.3286C97.58 59.3914 105.663 59.1571 114.097 60.0943C125.226 61.3829 137.174 64.6629 149.357 71.34C149.357 71.34 140.103 62.5543 120.189 56.4629L121.829 54.5886C121.829 54.5886 137.877 54.2371 154.746 66.8886C154.746 66.8886 171.614 97.4629 171.614 135.183C171.614 135.183 161.657 152.169 135.769 152.989Z" fill="white"/>
</svg>
