<svg width="538" height="73" viewBox="0 0 538 73" fill="none" xmlns="http://www.w3.org/2000/svg">
<path fill-rule="evenodd" clip-rule="evenodd" d="M1.96308 71.504V18H15.5631V31.904H21.0631V18H34.6631V71.504H21.0631V45.204H15.5631V71.504H1.96308ZM15.5631 14H0.147705L0.674021 9H15.5631V14ZM15.5631 6H0.98981L1.46308 1.50398H15.5631V6ZM21.0631 9V14H34.6631V9H21.0631ZM34.6631 6H21.0631V1.50398H34.6631V6ZM39.2482 9L38.7219 14H67.8857L68.1864 9H39.2482ZM68.3669 6H39.564L40.0373 1.50398H68.6373L68.3669 6ZM78.9443 9L78.418 14H104.872L104.136 9H78.9443ZM103.695 6H79.2601L79.7334 1.50398H103.033L103.695 6ZM113.344 9V14H145.444V9H113.344ZM145.444 6H113.344V1.50398H145.444V6ZM168.057 9L167.531 14H182.946V9H168.057ZM182.946 6H168.373L168.846 1.50398H182.946V6ZM188.446 9V14H202.046V9H188.446ZM202.046 6H188.446V1.50398H202.046V6ZM212.831 9L212.305 14H238.759L238.023 9H212.831ZM237.582 6H213.147L213.62 1.50398H236.92L237.582 6ZM251.235 9V14H281.074C281.181 13.1208 281.235 12.3221 281.235 11.604V9H251.235ZM281.235 6H251.235V1.50398H281.235V6ZM285.83 9L285.304 14H314.468L314.768 9H285.83ZM314.949 6H286.146L286.619 1.50398H315.219L314.949 6ZM337.94 9C337.528 10.4452 337.281 12.1118 337.201 14H371.343C371.26 12.1118 371.006 10.4452 370.582 9H337.94ZM369.261 6H339.222C339.59 5.40214 340.006 4.87014 340.472 4.40398C342.739 2.20398 346.439 1.10398 351.572 1.10398H356.972C362.106 1.10398 365.772 2.20398 367.972 4.40398C368.453 4.87014 368.882 5.40214 369.261 6ZM381.679 9L381.152 14H407.606L406.871 9H381.679ZM406.429 6H381.995L382.468 1.50398H405.768L406.429 6ZM419.717 9L419.191 14H441.406L440.771 9H419.717ZM440.39 6H420.033L420.506 1.50398H429.906L439.806 1.40398L440.39 6ZM448.532 9L447.882 14H468.306V9H448.532ZM468.306 6H448.922L449.506 1.50398H468.306V6ZM472.94 9L472.413 14H501.577L501.878 9H472.94ZM502.058 6H473.255L473.729 1.50398H502.329L502.058 6ZM506.472 9C506.098 10.4543 505.883 12.121 505.828 14H536.998C536.942 12.1176 536.724 10.4509 536.344 9H506.472ZM535.16 6H507.63C508.051 5.237 508.545 4.57166 509.113 4.00398C511.313 1.80398 514.88 0.703979 519.813 0.703979H524.013C528.68 0.903978 532.013 2.13731 534.013 4.40398C534.441 4.8749 534.823 5.4069 535.16 6ZM40.5373 71.504V18H54.1373V29.804H66.4373L65.6373 43.104H54.1373V58.204H68.6373L67.8373 71.504H40.5373ZM72.1334 71.504L79.9655 18H105.461L113.333 71.504H99.8334L98.3334 61.504H87.1334L85.6334 71.504H72.1334ZM122.644 71.504V18H136.244V71.504H122.644ZM169.346 71.504V18H182.946V31.904H188.446V18H202.046V71.504H188.446V45.204H182.946V71.504H169.346ZM206.02 71.504L213.852 18H239.347L247.22 71.504H233.72L232.22 61.504H221.02L219.52 71.504H206.02ZM252.135 56.204L266.426 18H280.075L265.035 58.204C264.968 58.5373 265.068 58.704 265.335 58.704H281.235V72.004H251.235V61.904C251.235 61.104 251.302 60.204 251.435 59.204C251.568 58.204 251.802 57.204 252.135 56.204ZM287.119 71.504V18H300.719V29.804H313.019L312.219 43.104H300.719V58.204H315.219L314.419 71.504H287.119ZM337.172 57.604V18H350.772V58.104C350.772 58.4373 350.939 58.604 351.272 58.604H357.272C357.606 58.604 357.772 58.4373 357.772 58.104V43.204H353.772L354.572 29.904H371.372V57.604C371.372 62.6706 370.239 66.3373 367.972 68.604C365.772 70.804 362.106 71.904 356.972 71.904H351.572C346.439 71.904 342.739 70.804 340.472 68.604C338.272 66.3373 337.172 62.6706 337.172 57.604ZM357.772 23.804V18H371.372V25.304L357.772 23.804ZM374.868 71.504L382.7 18H408.195L416.068 71.504H402.568L401.068 61.504H389.868L388.368 71.504H374.868ZM421.006 71.504V18H441.913L444.606 39.204L447.362 18H468.306V71.504H454.706V29.704L449.406 61.504H439.906L434.606 29.704V71.504H421.006ZM474.229 71.504V18H487.829V29.804H500.129L499.329 43.104H487.829V58.204H502.329L501.529 71.504H474.229ZM505.813 31.304V18H519.413V29.204L530.713 34.104C533.246 35.1706 534.913 36.3373 535.713 37.604C536.58 38.804 537.013 40.6373 537.013 43.104V58.004C537.013 62.8706 536.013 66.4373 534.013 68.704C532.013 70.904 528.68 72.104 524.013 72.304H520.013C514.946 72.304 511.313 71.204 509.113 69.004C506.913 66.7373 505.813 63.0706 505.813 58.004V49.504H519.413V58.504C519.413 58.8373 519.58 59.004 519.913 59.004H522.813C523.146 59.004 523.313 58.8373 523.313 58.504L523.413 45.204L512.113 40.304C509.58 39.1706 507.88 38.004 507.013 36.804C506.213 35.604 505.813 33.7706 505.813 31.304ZM523.413 26.004V18H537.013V27.504L523.413 26.004ZM89.0334 48.204H96.4334L92.7334 23.204L89.0334 48.204ZM230.32 48.204L226.62 23.204L222.92 48.204H230.32ZM391.768 48.204H399.168L395.468 23.204L391.768 48.204Z" fill="white"/>
</svg>
