<svg width="316" height="151" viewBox="0 0 316 151" fill="none" xmlns="http://www.w3.org/2000/svg">
<path fill-rule="evenodd" clip-rule="evenodd" d="M0.90858 4L1.32963 0H15.4296V4H0.90858ZM20.9296 4V0H34.5296V4H20.9296ZM39.4828 4L39.9039 0H68.5039L68.2633 4H39.4828ZM79.1789 4L79.5999 0H102.9L103.489 4H79.1789ZM113.211 4V0H145.311V4H113.211ZM168.291 4L168.712 0H182.812V4H168.291ZM188.312 4V0H201.912V4H188.312ZM213.066 4L213.487 0H236.787L237.375 4H213.066ZM251.102 4V0H281.102V4H251.102ZM286.065 4L286.486 0H315.086L314.845 4H286.065ZM1.82965 69.9999V15H15.4296V30.3999H20.9296V15H34.5296V69.9999H20.9296V43.6999H15.4296V69.9999H1.82965ZM34.5296 11H20.9296V7H34.5296V11ZM39.167 7L38.746 11H67.8422L68.0828 7H39.167ZM78.8631 7L78.4421 11H104.519L103.93 7H78.8631ZM113.211 7V11H145.311V7H113.211ZM167.976 7L167.555 11H182.812V7H167.976ZM188.312 7V11H201.912V7H188.312ZM212.75 7L212.329 11H238.405L237.817 7H212.75ZM251.102 7V11H281.076C281.093 10.6871 281.102 10.387 281.102 10.0999V7H251.102ZM285.749 7L285.328 11H314.424L314.665 7H285.749ZM0.59279 7L0.171738 11H15.4296V7H0.59279ZM40.4039 69.9999V15H54.0039V28.2999H66.3039L65.5039 41.5999H54.0039V56.6999H68.5039L67.7039 69.9999H40.4039ZM72 69.9999L80.0511 15H105.107L113.2 69.9999H99.7L98.2 59.9999H87L85.5 69.9999H72ZM122.511 69.9999V15H136.111V69.9999H122.511ZM169.212 69.9999V15H182.812V30.3999H188.312V15H201.912V69.9999H188.312V43.6999H182.812V69.9999H169.212ZM205.887 69.9999L213.938 15H238.994L247.087 69.9999H233.587L232.087 59.9999H220.887L219.387 69.9999H205.887ZM252.002 54.6999L266.853 15H280.447C280.372 15.2666 280.29 15.5332 280.202 15.7999L264.902 56.6999C264.835 57.0332 264.935 57.1999 265.202 57.1999H281.102V70.4999H251.102V60.3999C251.102 59.5999 251.168 58.6999 251.302 57.6999C251.435 56.6999 251.668 55.6999 252.002 54.6999ZM286.986 69.9999V15H300.586V28.2999H312.886L312.086 41.5999H300.586V56.6999H315.086L314.286 69.9999H286.986ZM96.3 46.6999H88.9L92.6 21.6999L96.3 46.6999ZM226.487 21.6999L230.187 46.6999H222.787L226.487 21.6999ZM75.2398 108.4L74.4398 121.7H78.4398V136.6C78.4398 136.933 78.2731 137.1 77.9398 137.1H71.9398C71.6065 137.1 71.4398 136.933 71.4398 136.6V97H57.8398V136.1C57.8398 141.167 58.9398 144.833 61.1398 147.1C63.4065 149.3 67.1065 150.4 72.2398 150.4H77.6398C82.7731 150.4 86.4398 149.3 88.6398 147.1C90.9065 144.833 92.0398 141.167 92.0398 136.1V108.4H75.2398ZM57.8515 93H71.5924C71.6748 92.9333 71.7906 92.8999 71.9398 92.8999H77.9398C78.089 92.8999 78.2048 92.9333 78.2872 93H92.0278C91.9881 91.5394 91.8501 90.2061 91.6138 89H58.2533C58.0239 90.2061 57.89 91.5394 57.8515 93ZM59.1262 86H90.7144C90.1828 84.7597 89.4913 83.7263 88.6398 82.8999C88.316 82.5761 87.9605 82.2761 87.5731 82H62.2337C61.838 82.2761 61.4734 82.5761 61.1398 82.8999C60.3134 83.7263 59.6422 84.7597 59.1262 86ZM102.925 82L102.504 86H127.318L126.729 82H102.925ZM126.435 80H103.135L103.135 79.9999H126.435L126.435 80ZM140.963 82L140.542 86H161.248L160.74 82H140.963ZM160.486 80H141.173L141.173 79.9999H150.573L160.473 79.8999L160.486 80ZM169.913 82L169.394 86H188.973V82H169.913ZM188.973 80H170.173L170.173 79.9999H188.973V80ZM194.186 82L193.764 86H222.635L222.876 82H194.186ZM222.996 80H194.396L194.396 79.9999H222.996L222.996 80ZM230.326 82C230.136 82.1598 229.954 82.3264 229.78 82.4999C228.867 83.4136 228.143 84.5803 227.609 86H256.533C256.061 84.7726 255.443 83.7392 254.68 82.8999C254.398 82.5792 254.088 82.2793 253.752 82H230.326ZM249.859 80H234.187C235.953 79.4666 238.051 79.1999 240.48 79.1999H244.68C246.642 79.284 248.369 79.5507 249.859 80ZM82.4688 80H67.3987C68.8386 79.7332 70.4523 79.5999 72.2398 79.5999H77.6398C79.4273 79.5999 81.0369 79.7332 82.4688 80ZM101.767 93L102.188 89H127.759L128.348 93H101.767ZM139.805 93L140.226 89H161.629L162.137 93H139.805ZM168.484 93L169.004 89H188.973V93H168.484ZM193.028 93L193.449 89H222.455L222.214 93H193.028ZM226.484 93C226.505 91.5442 226.618 90.2108 226.822 89H257.334C257.541 90.2091 257.656 91.5424 257.677 93H244.08V92.9999C244.08 92.6665 243.914 92.4999 243.58 92.4999H240.58C240.247 92.4999 240.08 92.6665 240.08 92.9999V93H226.484ZM92.0398 97H78.4398V102.3L92.0398 103.8V97ZM103.293 97H128.937L136.735 150H123.235L121.735 140H110.535L109.035 150H95.5351L103.293 97ZM141.673 97V150H155.273V108.2L160.573 140H170.073L175.373 108.2V150H188.973V97H167.964L165.273 117.7L162.645 97H141.673ZM194.896 97V150H222.196L222.996 136.7H208.496V121.6H219.996L220.796 108.3H208.496V97H194.896ZM226.48 97V109.8C226.48 112.267 226.88 114.1 227.68 115.3C228.547 116.5 230.247 117.667 232.78 118.8L244.08 123.7L243.98 137C243.98 137.333 243.814 137.5 243.48 137.5H240.58C240.247 137.5 240.08 137.333 240.08 137V128H226.48V136.5C226.48 141.567 227.58 145.233 229.78 147.5C231.98 149.7 235.614 150.8 240.68 150.8H244.68C249.347 150.6 252.68 149.4 254.68 147.2C256.68 144.933 257.68 141.367 257.68 136.5V121.6C257.68 119.133 257.247 117.3 256.38 116.1C255.58 114.833 253.914 113.667 251.38 112.6L240.08 107.7V97H226.48ZM244.08 97V104.5L257.68 106V97H244.08ZM119.835 126.7H112.435L116.135 101.7L119.835 126.7Z" fill="white"/>
</svg>
