<svg width="317" height="156" viewBox="0 0 317 156" fill="none" xmlns="http://www.w3.org/2000/svg">
<path fill-rule="evenodd" clip-rule="evenodd" d="M2.82964 69.9999V17H16.4296V30.3999H21.9296V17H35.5296V69.9999H21.9296V43.6999H16.4296V69.9999H2.82964ZM35.5296 13H21.9296V9.00001H35.5296V13ZM35.5296 6.00001H21.9296V2.00001H35.5296V6.00001ZM21.9296 -0.00012207V9.53674e-06H35.5296V-0.00012207H21.9296ZM40.2723 6.00001L40.6933 2.00001H69.3835L69.1429 6.00001H40.2723ZM40.9038 9.53674e-06H69.5039L69.5039 -0.00012207H40.9039L40.9038 9.53674e-06ZM79.9684 6.00001L80.3894 2.00001H104.194L104.783 6.00001H79.9684ZM80.5999 9.53674e-06H103.9L103.9 -0.00012207H80.6L80.5999 9.53674e-06ZM114.211 6.00001V2.00001H146.311V6.00001H114.211ZM114.211 9.53674e-06H146.311V-0.00012207H114.211V9.53674e-06ZM169.081 6.00001L169.502 2.00001H183.812V6.00001H169.081ZM169.712 9.53674e-06H183.812V-0.00012207H169.712L169.712 9.53674e-06ZM189.312 6.00001V2.00001H202.912V6.00001H189.312ZM189.312 9.53674e-06H202.912V-0.00012207H189.312V9.53674e-06ZM213.855 6.00001L214.276 2.00001H238.081L238.67 6.00001H213.855ZM214.487 9.53674e-06H237.787L237.787 -0.00012207H214.487L214.487 9.53674e-06ZM252.102 6.00001V2.00001H282.102V6.00001H252.102ZM252.102 9.53674e-06H282.102V-0.00012207H252.102V9.53674e-06ZM286.854 6.00001L287.275 2.00001H315.966L315.725 6.00001H286.854ZM287.486 9.53674e-06H316.086V-0.00012207H287.486V9.53674e-06ZM2.32963 9.53674e-06H16.4296V-0.00012207H2.32964L2.32963 9.53674e-06ZM16.4296 2.00001H2.1191L1.69805 6.00001H16.4296V2.00001ZM39.9565 9.00001L39.5354 13H68.7219L68.9625 9.00001H39.9565ZM79.6526 9.00001L79.2315 13H105.813L105.224 9.00001H79.6526ZM114.211 9.00001V13H146.311V9.00001H114.211ZM168.765 9.00001L168.344 13H183.812V9.00001H168.765ZM189.312 9.00001V13H202.912V9.00001H189.312ZM213.539 9.00001L213.118 13H239.7L239.111 9.00001H213.539ZM252.102 9.00001V13H281.873C281.88 12.9526 281.887 12.9052 281.894 12.8577L281.902 12.7999C282.035 11.7999 282.102 10.8999 282.102 10.0999V9.00001H252.102ZM286.538 9.00001L286.117 13H315.304L315.545 9.00001H286.538ZM1.38226 9.00001L0.961205 13H16.4296V9.00001H1.38226ZM41.4039 69.9999V17H55.0039V28.2999H67.3039L66.5039 41.5999H55.0039V56.6999H69.5039L68.7039 69.9999H41.4039ZM73 69.9999L80.7583 17H106.401L114.2 69.9999H100.7L99.1999 59.9999H88L86.5 69.9999H73ZM123.511 69.9999V17H137.111V69.9999H123.511ZM170.212 69.9999V17H183.812V30.3999H189.312V17H202.912V69.9999H189.312V43.6999H183.812V69.9999H170.212ZM206.887 69.9999L214.645 17H240.288L248.087 69.9999H234.587L233.087 59.9999H221.887L220.387 69.9999H206.887ZM253.002 54.6999L267.104 17H280.753L265.902 56.6999C265.835 57.0332 265.935 57.1999 266.202 57.1999H282.102V70.4999H252.102V60.3999C252.102 59.5999 252.168 58.6999 252.302 57.6999C252.435 56.6999 252.668 55.6999 253.002 54.6999ZM287.986 69.9999V17H301.586V28.2999H313.886L313.086 41.5999H301.586V56.6999H316.086L315.286 69.9999H287.986ZM97.3 46.6999H89.9L93.6 21.6999L97.3 46.6999ZM227.487 21.6999L231.187 46.6999H223.787L227.487 21.6999ZM76.2398 113.4L75.4398 126.7H79.4398V141.6C79.4398 141.933 79.2731 142.1 78.9398 142.1H72.9398C72.6065 142.1 72.4398 141.933 72.4398 141.6V102H58.8398V141.1C58.8398 146.167 59.9398 149.833 62.1398 152.1C64.4065 154.3 68.1065 155.4 73.2398 155.4H78.6398C83.7731 155.4 87.4398 154.3 89.6398 152.1C91.9065 149.833 93.0398 146.167 93.0398 141.1V113.4H76.2398ZM58.8515 98H72.5924C72.6748 97.9333 72.7906 97.8999 72.9398 97.8999H78.9398C79.089 97.8999 79.2048 97.9333 79.2872 98H93.0278C92.9881 96.5394 92.8501 95.2061 92.6138 94H59.2533C59.0239 95.2061 58.89 96.5394 58.8515 98ZM60.1262 91H91.7144C91.1828 89.7597 90.4913 88.7263 89.6398 87.8999C89.316 87.5761 88.9605 87.2761 88.5731 87H63.2337C62.838 87.2761 62.4734 87.5761 62.1398 87.8999C61.3134 88.7263 60.6422 89.7597 60.1262 91ZM103.925 87L103.504 91H128.318L127.729 87H103.925ZM127.435 85H104.135L104.135 84.9999H127.435L127.435 85ZM141.963 87L141.542 91H162.248L161.74 87H141.963ZM161.486 85H142.173L142.173 84.9999H151.573L161.473 84.8999L161.486 85ZM170.913 87L170.394 91H189.973V87H170.913ZM189.973 85H171.173L171.173 84.9999H189.973V85ZM195.185 87L194.764 91H223.635L223.876 87H195.185ZM223.996 85H195.396L195.396 84.9999H223.996L223.996 85ZM231.326 87C231.136 87.1598 230.954 87.3264 230.78 87.4999C229.867 88.4136 229.143 89.5803 228.609 91H257.533C257.061 89.7726 256.443 88.7392 255.68 87.8999C255.398 87.5792 255.088 87.2793 254.752 87H231.326ZM250.859 85H235.187C236.953 84.4666 239.051 84.1999 241.48 84.1999H245.68C247.642 84.284 249.369 84.5507 250.859 85ZM83.4687 85H68.3987C69.8386 84.7333 71.4523 84.5999 73.2398 84.5999H78.6398C80.4273 84.5999 82.0369 84.7333 83.4687 85ZM102.767 98L103.188 94H128.759L129.348 98H102.767ZM140.805 98L141.226 94H162.629L163.137 98H140.805ZM169.484 98L170.004 94H189.973V98H169.484ZM194.028 98L194.449 94H223.455L223.214 98H194.028ZM227.484 98C227.505 96.5442 227.618 95.2108 227.822 94H258.334C258.541 95.2091 258.656 96.5424 258.677 98H245.08V97.9999C245.08 97.6665 244.914 97.4999 244.58 97.4999H241.58C241.247 97.4999 241.08 97.6665 241.08 97.9999V98H227.484ZM93.0398 102H79.4398V107.3L93.0398 108.8V102ZM104.293 102H129.937L137.735 155H124.235L122.735 145H111.535L110.035 155H96.5351L104.293 102ZM142.673 102V155H156.273V113.2L161.573 145H171.073L176.373 113.2V155H189.973V102H168.964L166.273 122.7L163.645 102H142.673ZM195.896 102V155H223.196L223.996 141.7H209.496V126.6H220.996L221.796 113.3H209.496V102H195.896ZM227.48 102V114.8C227.48 117.267 227.88 119.1 228.68 120.3C229.547 121.5 231.247 122.667 233.78 123.8L245.08 128.7L244.98 142C244.98 142.333 244.814 142.5 244.48 142.5H241.58C241.247 142.5 241.08 142.333 241.08 142V133H227.48V141.5C227.48 146.567 228.58 150.233 230.78 152.5C232.98 154.7 236.614 155.8 241.68 155.8H245.68C250.347 155.6 253.68 154.4 255.68 152.2C257.68 149.933 258.68 146.367 258.68 141.5V126.6C258.68 124.133 258.247 122.3 257.38 121.1C256.58 119.833 254.914 118.667 252.38 117.6L241.08 112.7V102H227.48ZM245.08 102V109.5L258.68 111V102H245.08ZM120.835 131.7H113.435L117.135 106.7L120.835 131.7Z" fill="white"/>
</svg>
