<svg width="256" height="256" viewBox="0 0 256 256" fill="none" xmlns="http://www.w3.org/2000/svg">
<path d="M127.841 0C93.121 0 88.7674 0.147291 75.1317 0.769186C61.5246 1.38994 52.2316 3.55135 44.0998 6.71106C35.6931 9.97811 28.5638 14.3496 21.4569 21.4565C14.3496 28.5634 9.97811 35.6935 6.71145 44.1001C3.55097 52.2316 1.39032 61.5246 0.768806 75.1317C0.14691 88.7674 0 93.121 0 127.841C0 162.559 0.14691 166.913 0.768806 180.549C1.39032 194.156 3.55097 203.449 6.71145 211.58C9.97849 219.987 14.35 227.116 21.4569 234.224C28.5642 241.331 35.6931 245.702 44.0998 248.969C52.2316 252.129 61.5246 254.29 75.1317 254.911C88.7674 255.533 93.121 255.68 127.841 255.68C162.559 255.68 166.913 255.533 180.549 254.911C194.156 254.29 203.449 252.129 211.58 248.969C219.987 245.702 227.116 241.331 234.224 234.224C241.331 227.116 245.702 219.987 248.969 211.58C252.129 203.449 254.29 194.156 254.911 180.549C255.533 166.913 255.68 162.559 255.68 127.841C255.68 93.121 255.533 88.7674 254.911 75.1317C254.29 61.5246 252.129 52.2316 248.969 44.1001C245.702 35.6935 241.331 28.5634 234.224 21.4565C227.116 14.3496 219.987 9.97811 211.58 6.71106C203.449 3.55135 194.156 1.38994 180.549 0.769186C166.913 0.147291 162.559 0 127.841 0ZM127.841 23.0341C161.975 23.0341 166.018 23.1646 179.499 23.7797C191.963 24.3479 198.732 26.4305 203.236 28.1813C209.204 30.5007 213.463 33.2706 217.936 37.7442C222.41 42.2177 225.18 46.4766 227.499 52.4436C229.25 56.9483 231.332 63.7176 231.901 76.1818C232.516 89.6622 232.646 93.7056 232.646 127.84C232.646 161.975 232.516 166.018 231.901 179.499C231.332 191.963 229.25 198.732 227.499 203.236C225.18 209.204 222.41 213.463 217.936 217.936C213.463 222.41 209.204 225.18 203.237 227.499C198.732 229.25 191.963 231.332 179.499 231.901C166.021 232.516 161.977 232.646 127.84 232.646C93.703 232.646 89.6606 232.516 76.1818 231.9C63.7172 231.332 56.9483 229.25 52.444 227.499C46.4762 225.18 42.2177 222.41 37.7446 217.936C33.271 213.463 30.5007 209.204 28.1813 203.237C26.4305 198.732 24.3483 191.963 23.7797 179.499C23.1646 166.018 23.0341 161.975 23.0341 127.84C23.0341 93.7056 23.1646 89.6622 23.7797 76.1818C24.3483 63.7172 26.4305 56.9483 28.1813 52.444C30.5007 46.4762 33.271 42.2177 37.7442 37.7446C42.2177 33.2706 46.4766 30.5007 52.4436 28.1813C56.9483 26.4305 63.7176 24.3479 76.1818 23.7797C89.6622 23.1646 93.706 23.0341 127.841 23.0341Z" fill="white"/>
<path d="M127.841 170.454C104.305 170.454 85.2267 151.375 85.2267 127.841C85.2267 104.305 104.305 85.2267 127.841 85.2267C151.375 85.2267 170.454 104.305 170.454 127.841C170.454 151.375 151.375 170.454 127.841 170.454ZM127.841 62.1926C91.5838 62.1926 62.1926 91.5838 62.1926 127.841C62.1926 164.097 91.5838 193.488 127.841 193.488C164.097 193.488 193.488 164.097 193.488 127.841C193.488 91.5838 164.097 62.1926 127.841 62.1926ZM211.423 59.5988C211.423 68.0716 204.554 74.9395 196.082 74.9395C187.61 74.9395 180.741 68.0716 180.741 59.5988C180.741 51.1263 187.61 44.2577 196.082 44.2577C204.554 44.2577 211.423 51.1263 211.423 59.5988Z" fill="white"/>
</svg>
