<svg width="255" height="255" viewBox="0 0 255 255" fill="none" xmlns="http://www.w3.org/2000/svg">
<path fill-rule="evenodd" clip-rule="evenodd" d="M5.23884 164.69C21.1708 216.97 69.8209 255.004 127.365 255.004C197.857 255.004 255.004 197.918 255.004 127.502C255.004 57.0847 197.857 0 127.365 0C59.7219 0 4.3715 52.5647 0 119.031C0.0183421 119.062 0.0366593 119.092 0.0549516 119.123C0.0555599 119.113 0.0558779 119.108 0.0558779 119.108L68.6401 147.311C70.525 146.069 72.5267 145.013 74.6167 144.159C79.4308 142.178 84.5079 141.292 89.5675 141.522L120.801 96.1989C120.79 95.9975 120.79 95.783 120.79 95.5685C120.79 68.8204 142.538 47.0608 169.271 47.0608C196.015 47.0608 217.752 68.8204 217.752 95.5685C217.752 122.314 196.015 144.094 169.271 144.094C168.91 144.094 168.537 144.083 168.175 144.072L123.485 175.975C123.617 180.9 122.708 185.835 120.757 190.542C113.263 208.545 92.4916 217.114 74.4765 209.596C63.4656 205.01 56.0023 195.477 53.5678 184.61L5.23884 164.69ZM77.5836 202.132C91.4935 207.921 107.496 201.322 113.296 187.411C116.101 180.692 116.112 173.249 113.34 166.508C110.568 159.766 105.338 154.491 98.5964 151.689C91.9099 148.909 84.7533 148.997 78.459 151.383L94.7727 158.135C105.025 162.404 109.878 174.18 105.601 184.435C101.337 194.679 89.5675 199.538 79.3092 195.27L63.5269 188.736C66.3218 194.569 71.1666 199.461 77.5836 202.132ZM136.972 95.5685C136.972 113.395 151.467 127.896 169.271 127.896C187.086 127.896 201.581 113.395 201.581 95.5685C201.581 77.7565 187.086 63.2508 169.271 63.2508C151.467 63.2508 136.972 77.7565 136.972 95.5685ZM169.326 71.2326C155.937 71.2326 145.069 82.1091 145.069 95.5192C145.069 108.93 155.937 119.797 169.326 119.797C182.725 119.797 193.594 108.93 193.594 95.5192C193.594 82.1091 182.725 71.2326 169.326 71.2326Z" fill="white"/>
</svg>
