<svg width="225" height="256" viewBox="0 0 225 256" fill="none" xmlns="http://www.w3.org/2000/svg">
<path d="M87.4693 100.925V90.8326C84.1051 89.9916 80.7409 89.9924 77.3767 89.9924C34.4831 89.9924 0 124.475 0 167.368C0 193.441 13.4568 216.99 32.801 230.447L31.9599 229.606C19.3442 216.149 12.6158 197.647 12.6158 178.303C12.6158 135.409 46.2578 101.766 87.4693 100.925Z" fill="#25F4EE"/>
<path d="M89.1531 213.627C108.497 213.627 123.636 198.488 124.477 179.144V10.9337H154.755C153.914 7.56946 153.914 4.20526 153.914 0H111.861V168.21C111.02 186.713 95.8815 201.852 76.5373 201.852C70.65 201.852 64.7626 200.17 60.5574 197.647C67.2858 206.899 77.3784 213.627 89.1531 213.627ZM212.786 68.1252V58.0325C201.011 58.0325 190.078 54.6683 180.826 48.781C189.237 58.0325 200.17 65.602 212.786 68.1252Z" fill="#25F4EE"/>
<path d="M180.825 48.781C171.574 38.6884 166.527 25.2316 166.527 10.0927H154.753C158.117 26.9137 168.209 40.3705 180.825 48.781ZM77.3767 131.203C58.0325 131.203 42.0526 147.183 42.0526 166.527C42.0526 179.984 50.4631 191.759 61.3967 197.646C57.1915 191.759 54.6683 185.03 54.6683 177.461C54.6683 158.117 70.6483 142.137 89.9925 142.137C93.3567 142.137 96.7209 142.978 100.085 143.819V100.925C96.7209 100.084 93.3567 100.084 89.9925 100.084H88.3104V132.044C84.1051 132.044 80.7409 131.203 77.3767 131.203Z" fill="#FE2C55"/>
<path d="M212.785 68.126V100.086C190.918 100.086 170.733 93.3575 154.753 81.5828V167.37C154.753 210.264 120.269 244.747 77.3759 244.747C60.5549 244.747 45.4159 239.7 32.8002 231.29C47.098 246.429 67.2833 255.68 89.1506 255.68C132.044 255.68 166.527 221.197 166.527 178.304V92.5165C183.348 104.291 203.534 111.02 224.56 111.02V68.967C221.196 68.967 216.99 68.967 212.785 68.126Z" fill="#FE2C55"/>
<path d="M154.753 167.368V81.5811C171.574 93.3567 191.759 100.084 212.785 100.084V67.2833C200.169 64.7601 189.236 58.0317 180.825 48.7802C167.368 40.3696 158.117 26.0718 155.594 10.0918H124.475V178.303C123.634 196.806 108.495 211.945 89.1506 211.945C77.3759 211.945 67.2833 206.057 60.5548 197.646C49.6212 192.6 42.0517 180.825 42.0517 167.368C42.0517 148.024 58.0317 132.045 77.3759 132.045C80.7401 132.045 84.1043 132.885 87.4685 133.726V100.925C45.4159 101.766 11.7739 136.25 11.7739 178.303C11.7739 198.488 19.3433 216.99 32.8001 231.288C45.4159 239.699 60.5548 245.587 77.3759 245.587C120.269 244.746 154.753 209.421 154.753 167.368Z" fill="white"/>
</svg>
