<svg width="280" height="196" viewBox="0 0 280 196" fill="none" xmlns="http://www.w3.org/2000/svg">
<path d="M111.363 139.365V56.6366L184.546 98.0018L111.363 139.365ZM274.149 30.6057C270.928 18.5588 261.44 9.07134 249.394 5.85156C227.559 0 139.999 0 139.999 0C139.999 0 52.4415 0 30.6063 5.85156C18.5599 9.07134 9.07175 18.5588 5.85135 30.6057C0 52.4412 0 98.0006 0 98.0006C0 98.0006 0 143.558 5.85135 165.394C9.07175 177.442 18.5587 186.929 30.6063 190.151C52.4415 196 139.999 196 139.999 196C139.999 196 227.559 196 249.394 190.151C261.44 186.929 270.928 177.442 274.149 165.394C280 143.558 280 97.9994 280 97.9994C280 97.9994 280 52.4412 274.149 30.6057Z" fill="white"/>
</svg>
